<svg width="35" height="35" viewBox="0 0 35 35" fill="none" xmlns="http://www.w3.org/2000/svg">
<g id="Octocat">
<path id="Vector" d="M5.43458 4.66666C4.22124 7.50282 4.71124 9.8703 5.14291 11.1676C3.40108 13.0343 2.33562 15.6059 2.33562 19.0312C2.33562 27.5094 7.69062 30.3333 17.5023 30.3333C27.314 30.3333 32.669 27.5094 32.669 19.0312C32.6701 15.7226 31.5428 13.1422 29.7181 11.2406C29.9794 10.8112 30.3379 9.97324 30.3379 8.38541C30.3379 5.99724 29.5358 4.66666 29.5358 4.66666C28.2886 4.66666 25.3577 5.16954 22.9346 7.58104C21.2137 7.15288 19.3794 6.99999 17.5046 6.99999C15.6682 6.99999 13.8698 7.10067 12.1816 7.47167C12.0731 7.37134 9.05474 4.66666 5.43458 4.66666ZM11.6735 15.75C13.1937 15.7663 15.7021 16.3322 17.5046 16.3333C19.3071 16.3322 21.8132 15.7663 23.3333 15.75C26.2757 15.75 28 18.0864 28 20.9681C28 25.6954 25.2663 27.9988 17.5068 28H17.5046H17.5C9.74051 27.9988 7.00684 25.6954 7.00684 20.9681C7.00684 18.0864 8.73118 15.75 11.6735 15.75ZM12.25 19.8333C11.7859 19.8333 11.3408 20.0792 11.0126 20.5167C10.6844 20.9543 10.5 21.5478 10.5 22.1667C10.5 22.7855 10.6844 23.379 11.0126 23.8166C11.3408 24.2542 11.7859 24.5 12.25 24.5C12.7141 24.5 13.1593 24.2542 13.4874 23.8166C13.8156 23.379 14 22.7855 14 22.1667C14 21.5478 13.8156 20.9543 13.4874 20.5167C13.1593 20.0792 12.7141 19.8333 12.25 19.8333ZM22.75 19.8333C22.2859 19.8333 21.8408 20.0792 21.5126 20.5167C21.1844 20.9543 21 21.5478 21 22.1667C21 22.7855 21.1844 23.379 21.5126 23.8166C21.8408 24.2542 22.2859 24.5 22.75 24.5C23.2141 24.5 23.6593 24.2542 23.9874 23.8166C24.3156 23.379 24.5 22.7855 24.5 22.1667C24.5 21.5478 24.3156 20.9543 23.9874 20.5167C23.6593 20.0792 23.2141 19.8333 22.75 19.8333Z" fill="url(#paint0_linear_5_182)"/>
</g>
<defs>
<linearGradient id="paint0_linear_5_182" x1="17.5023" y1="4.66666" x2="17.5023" y2="30.3333" gradientUnits="userSpaceOnUse">
<stop stop-color="#1DB57E"/>
<stop offset="1" stop-color="#6827D2"/>
</linearGradient>
</defs>
</svg>
