<svg width="35" height="35" viewBox="0 0 35 35" fill="none" xmlns="http://www.w3.org/2000/svg">
<g id="icons8-linkedin 1">
<path id="Vector" d="M10.5 29.1667H4.66666V11.6667H10.5V29.1667ZM7.5845 9.33333C5.971 9.33333 4.66666 8.0255 4.66666 6.4155C4.66666 4.8055 5.97333 3.5 7.5845 3.5C9.19216 3.5 10.5 4.80783 10.5 6.4155C10.5 8.0255 9.19216 9.33333 7.5845 9.33333ZM31.5 29.1667H25.8918V20.65C25.8918 18.6188 25.8533 16.0067 22.9763 16.0067C20.0562 16.0067 19.607 18.2187 19.607 20.503V29.1667H14V11.6538H19.383V14.0467H19.4588C20.2078 12.67 22.0383 11.2187 24.7683 11.2187C30.45 11.2187 31.5 14.8458 31.5 19.5615V29.1667Z" fill="url(#paint0_linear_63_17)"/>
</g>
<defs>
<linearGradient id="paint0_linear_63_17" x1="18.0833" y1="3.5" x2="18.0833" y2="29.1667" gradientUnits="userSpaceOnUse">
<stop stop-color="#1DB57E"/>
<stop offset="1" stop-color="#6827D2"/>
</linearGradient>
</defs>
</svg>
