<svg width="80" height="80" viewBox="0 0 80 80" fill="none" xmlns="http://www.w3.org/2000/svg">
<path d="M80 38.9633C80 33.6633 73.3633 28.64 63.1867 25.5266C65.5367 15.1566 64.4933 6.90331 59.8933 4.25998C58.7787 3.63571 57.5172 3.32149 56.24 3.34998V6.98331C56.99 6.98331 57.5933 7.13331 58.1 7.40998C60.3167 8.68331 61.28 13.5233 60.53 19.7533C60.35 21.2866 60.0567 22.9 59.6967 24.5466C56.2888 23.7254 52.83 23.1319 49.3433 22.77C47.2662 19.9043 45 17.1804 42.56 14.6166C47.8767 9.67665 52.8667 6.96998 56.26 6.96998V3.33331C51.7733 3.33331 45.9033 6.52998 39.9667 12.0733C34.0333 6.56665 28.16 3.39998 23.6767 3.39998V7.03331C27.0533 7.03331 32.06 9.72665 37.3767 14.6333C35.0933 17.0333 32.81 19.7533 30.64 22.77C27.1461 23.1279 23.6812 23.7271 20.27 24.5633C19.8933 22.9333 19.6167 21.3533 19.42 19.8366C18.6533 13.6033 19.6 8.76331 21.8033 7.47665C22.29 7.18331 22.9267 7.04998 23.6767 7.04998V3.41665C22.31 3.41665 21.0667 3.70998 19.9933 4.32665C15.41 6.96998 14.3833 15.2033 16.7467 25.5433C6.60333 28.6766 0 33.68 0 38.9633C0 44.2633 6.63667 49.2866 16.8133 52.3966C14.4633 62.77 15.5067 71.0233 20.1067 73.6633C21.1667 74.2833 22.4067 74.5766 23.7733 74.5766C28.26 74.5766 34.13 71.38 40.0667 65.8366C46 71.3466 51.87 74.51 56.3567 74.51C57.6437 74.5372 58.9148 74.222 60.04 73.5966C64.6233 70.9566 65.65 62.7233 63.2867 52.3833C73.3967 49.27 80 44.2467 80 38.9633ZM58.7667 28.0866C58.1333 30.2662 57.3992 32.4151 56.5667 34.5266C55.2039 31.8758 53.7075 29.2959 52.0833 26.7966C54.4 27.14 56.6333 27.5633 58.77 28.0866H58.7667ZM51.3 45.4533C50.03 47.6533 48.7233 49.7433 47.37 51.6833C42.4775 52.1145 37.5568 52.1201 32.6633 51.7C29.8565 47.6906 27.4018 43.4459 25.3267 39.0133C27.3986 34.5703 29.8429 30.3107 32.6333 26.28C37.5246 25.8479 42.4442 25.8412 47.3367 26.26C48.69 28.2 50.0133 30.2733 51.2833 32.46C52.5233 34.5933 53.65 36.76 54.6767 38.9466C53.6386 41.1598 52.5121 43.3305 51.3 45.4533ZM56.5667 43.3333C57.4467 45.5166 58.2 47.7033 58.8167 49.8233C56.6833 50.3466 54.43 50.7866 52.1 51.1266C53.7175 48.6047 55.2082 46.0037 56.5667 43.3333ZM40.0333 60.7333C38.5167 59.1666 37 57.4233 35.5 55.5133C36.9667 55.58 38.4667 55.63 39.9833 55.63C41.5167 55.63 43.0333 55.5966 44.5167 55.5133C43.05 57.4233 41.5333 59.1666 40.0333 60.7333ZM27.9 51.1266C25.6525 50.801 23.4212 50.3716 21.2133 49.84C21.8167 47.7366 22.5667 45.5667 23.4133 43.4C24.0833 44.7 24.7867 46.0066 25.5533 47.3133C26.32 48.6166 27.1 49.89 27.9 51.1266ZM39.95 17.1933C41.4667 18.76 42.9833 20.5033 44.4833 22.4133C43.0167 22.3466 41.5167 22.2966 40 22.2966C38.4667 22.2966 36.95 22.33 35.4667 22.4133C36.9333 20.5033 38.45 18.76 39.95 17.1933ZM27.8833 26.8C26.2662 29.3164 24.7755 31.9119 23.4167 34.5766C22.5607 32.4515 21.8098 30.2856 21.1667 28.0866C23.3 27.58 25.5533 27.14 27.8833 26.8ZM13.1267 47.2133C7.35333 44.7533 3.62 41.5233 3.62 38.9633C3.62 36.4033 7.35333 33.1566 13.1267 30.7133C14.5267 30.11 16.06 29.57 17.6433 29.0666C18.5733 32.26 19.7967 35.5867 21.31 38.9967C19.8812 42.2039 18.6729 45.5049 17.6933 48.8766C16.1448 48.3972 14.6208 47.8421 13.1267 47.2133ZM21.9 70.5133C19.6833 69.2467 18.72 64.4 19.47 58.1733C19.65 56.64 19.9433 55.0233 20.3033 53.3767C23.4967 54.16 26.9867 54.7633 30.6567 55.1567C32.7339 58.0223 35.0001 60.7461 37.44 63.31C32.1233 68.25 27.1333 70.9566 23.74 70.9566C23.0998 70.9636 22.4678 70.8125 21.9 70.5167V70.5133ZM60.58 58.09C61.3467 64.32 60.4 69.1633 58.1967 70.45C57.71 70.7433 57.0733 70.8733 56.3233 70.8733C52.9467 70.8733 47.94 68.1833 42.6233 63.2733C44.9067 60.88 47.19 58.1566 49.36 55.14C52.8539 54.7821 56.3188 54.1829 59.73 53.3466C60.1067 54.9933 60.3967 56.5733 60.58 58.09ZM66.8567 47.2133C65.4567 47.8166 63.9233 48.3566 62.34 48.86C61.3432 45.471 60.1182 42.1535 58.6733 38.93C60.1733 35.54 61.3767 32.23 62.29 29.05C63.9067 29.5533 65.4367 30.11 66.8733 30.7133C72.6467 33.1733 76.38 36.4033 76.38 38.9633C76.3633 41.5233 72.63 44.77 66.8567 47.2133Z" fill="#1DB57E"/>
<path d="M39.9828 46.4163C41.9596 46.4163 43.8554 45.6311 45.2531 44.2333C46.6509 42.8355 47.4362 40.9397 47.4362 38.963C47.4362 36.9862 46.6509 35.0904 45.2531 33.6927C43.8554 32.2949 41.9596 31.5096 39.9828 31.5096C38.0061 31.5096 36.1103 32.2949 34.7125 33.6927C33.3148 35.0904 32.5295 36.9862 32.5295 38.963C32.5295 40.9397 33.3148 42.8355 34.7125 44.2333C36.1103 45.6311 38.0061 46.4163 39.9828 46.4163Z" fill="#1DB57E"/>
</svg>
